# MagicaVoxel @ Ephtracy

# group
o 

# material
mtllib coxa de frenago.mtl
usemtl palette

# normals
vn -1 0 0
vn 1 0 0
vn 0 0 1
vn 0 0 -1
vn 0 -1 0
vn 0 1 0

# texcoords
vt 0.369141 0.5
vt 0.373047 0.5
vt 0.978516 0.5

# verts
v 2.5 3.3 -3.9
v 2.5 3.3 -4
v 2.5 3.5 -3.9
v 2.5 3.5 -4
v 2.5 3.6 -3.9
v 2.5 3.6 -4
v 2.5 3.7 -3.9
v 2.5 3.7 -4
v 2.6 2 -3.9
v 2.6 2 -4
v 2.6 2.1 -3.9
v 2.6 2.1 -4
v 2.6 3.1 -3.9
v 2.6 3.1 -4
v 2.6 3.3 -3.8
v 2.6 3.3 -3.9
v 2.6 3.3 -4
v 2.6 3.3 -4.1
v 2.6 3.5 -3.9
v 2.6 3.5 -4
v 2.6 3.6 -3.9
v 2.6 3.6 -4
v 2.6 3.7 -3.8
v 2.6 3.7 -3.9
v 2.6 3.7 -4
v 2.6 3.7 -4.1
v 2.6 3.8 -3.9
v 2.6 3.8 -4
v 2.7 2 -3.8
v 2.7 2 -3.9
v 2.7 2 -4
v 2.7 2 -4.1
v 2.7 2.1 -3.8
v 2.7 2.1 -3.9
v 2.7 2.1 -4
v 2.7 2.1 -4.1
v 2.7 2.2 -3.9
v 2.7 2.2 -4
v 2.7 2.8 -3.9
v 2.7 2.8 -4
v 2.7 3.1 -3.8
v 2.7 3.1 -3.9
v 2.7 3.1 -4
v 2.7 3.1 -4.1
v 2.7 3.2 -4
v 2.7 3.2 -4.1
v 2.7 3.3 -3.7
v 2.7 3.3 -3.8
v 2.7 3.3 -3.9
v 2.7 3.3 -4
v 2.7 3.3 -4.1
v 2.7 3.3 -4.2
v 2.7 3.4 -4.1
v 2.7 3.4 -4.2
v 2.7 3.5 -4.1
v 2.7 3.5 -4.2
v 2.7 3.6 -3.7
v 2.7 3.6 -3.8
v 2.7 3.7 -3.7
v 2.7 3.7 -3.8
v 2.7 3.7 -3.9
v 2.7 3.7 -4
v 2.7 3.7 -4.1
v 2.7 3.7 -4.2
v 2.7 3.8 -3.8
v 2.7 3.8 -3.9
v 2.7 3.8 -4
v 2.7 3.8 -4.1
v 2.7 3.9 -3.9
v 2.7 3.9 -4
v 2.8 2 -3.7
v 2.8 2 -3.8
v 2.8 2 -4.1
v 2.8 2 -4.2
v 2.8 2.1 -3.7
v 2.8 2.1 -3.8
v 2.8 2.1 -3.9
v 2.8 2.1 -4
v 2.8 2.1 -4.1
v 2.8 2.1 -4.2
v 2.8 2.2 -3.8
v 2.8 2.2 -3.9
v 2.8 2.2 -4
v 2.8 2.2 -4.1
v 2.8 2.8 -3.8
v 2.8 2.8 -3.9
v 2.8 2.8 -4
v 2.8 2.8 -4.1
v 2.8 2.9 -3.8
v 2.8 2.9 -3.9
v 2.8 3 -3.8
v 2.8 3 -3.9
v 2.8 3.1 -3.7
v 2.8 3.1 -3.8
v 2.8 3.1 -3.9
v 2.8 3.1 -4
v 2.8 3.1 -4.1
v 2.8 3.1 -4.2
v 2.8 3.2 -4.1
v 2.8 3.2 -4.2
v 2.8 3.3 -3.6
v 2.8 3.3 -3.7
v 2.8 3.3 -3.8
v 2.8 3.3 -4.1
v 2.8 3.3 -4.2
v 2.8 3.3 -4.3
v 2.8 3.4 -4.2
v 2.8 3.5 -4.2
v 2.8 3.6 -3.7
v 2.8 3.7 -3.6
v 2.8 3.7 -3.7
v 2.8 3.7 -3.8
v 2.8 3.7 -4.1
v 2.8 3.7 -4.2
v 2.8 3.7 -4.3
v 2.8 3.8 -3.7
v 2.8 3.8 -3.8
v 2.8 3.8 -3.9
v 2.8 3.8 -4
v 2.8 3.8 -4.1
v 2.8 3.8 -4.2
v 2.8 3.9 -3.8
v 2.8 3.9 -3.9
v 2.8 3.9 -4
v 2.8 3.9 -4.1
v 2.8 4 -3.9
v 2.8 4 -4
v 2.9 2 -3.7
v 2.9 2 -3.8
v 2.9 2 -4.1
v 2.9 2 -4.2
v 2.9 2.1 -3.7
v 2.9 2.1 -3.8
v 2.9 2.1 -3.9
v 2.9 2.1 -4
v 2.9 2.1 -4.1
v 2.9 2.1 -4.2
v 2.9 2.2 -3.8
v 2.9 2.2 -3.9
v 2.9 2.2 -4
v 2.9 2.2 -4.1
v 2.9 2.8 -3.8
v 2.9 2.8 -3.9
v 2.9 2.8 -4
v 2.9 2.8 -4.1
v 2.9 2.9 -3.8
v 2.9 2.9 -3.9
v 2.9 3 -3.8
v 2.9 3 -3.9
v 2.9 3.1 -3.7
v 2.9 3.1 -3.8
v 2.9 3.1 -3.9
v 2.9 3.1 -4
v 2.9 3.1 -4.1
v 2.9 3.1 -4.2
v 2.9 3.2 -4.1
v 2.9 3.2 -4.2
v 2.9 3.3 -3.6
v 2.9 3.3 -3.7
v 2.9 3.3 -3.8
v 2.9 3.3 -4.1
v 2.9 3.3 -4.2
v 2.9 3.3 -4.3
v 2.9 3.4 -3.7
v 2.9 3.5 -3.7
v 2.9 3.5 -4.2
v 2.9 3.6 -4.2
v 2.9 3.7 -3.6
v 2.9 3.7 -3.7
v 2.9 3.7 -3.8
v 2.9 3.7 -4.1
v 2.9 3.7 -4.2
v 2.9 3.7 -4.3
v 2.9 3.8 -3.7
v 2.9 3.8 -3.8
v 2.9 3.8 -3.9
v 2.9 3.8 -4
v 2.9 3.8 -4.1
v 2.9 3.8 -4.2
v 2.9 3.9 -3.8
v 2.9 3.9 -3.9
v 2.9 3.9 -4
v 2.9 3.9 -4.1
v 2.9 4 -3.9
v 2.9 4 -4
v 3 2 -3.8
v 3 2 -3.9
v 3 2 -4
v 3 2 -4.1
v 3 2.1 -3.8
v 3 2.1 -3.9
v 3 2.1 -4
v 3 2.1 -4.1
v 3 2.2 -3.9
v 3 2.2 -4
v 3 2.8 -3.9
v 3 2.8 -4
v 3 3.1 -3.8
v 3 3.1 -3.9
v 3 3.1 -4
v 3 3.1 -4.1
v 3 3.3 -3.7
v 3 3.3 -3.8
v 3 3.3 -3.9
v 3 3.3 -4
v 3 3.3 -4.1
v 3 3.3 -4.2
v 3 3.4 -3.7
v 3 3.4 -3.8
v 3 3.4 -4.1
v 3 3.5 -3.7
v 3 3.5 -3.8
v 3 3.5 -4.1
v 3 3.5 -4.2
v 3 3.6 -3.8
v 3 3.6 -4.1
v 3 3.6 -4.2
v 3 3.7 -3.7
v 3 3.7 -3.8
v 3 3.7 -3.9
v 3 3.7 -4
v 3 3.7 -4.1
v 3 3.7 -4.2
v 3 3.8 -3.8
v 3 3.8 -3.9
v 3 3.8 -4
v 3 3.8 -4.1
v 3 3.9 -3.9
v 3 3.9 -4
v 3.1 2 -3.9
v 3.1 2 -4
v 3.1 2.1 -3.9
v 3.1 2.1 -4
v 3.1 3.1 -3.9
v 3.1 3.1 -4
v 3.1 3.3 -3.8
v 3.1 3.3 -3.9
v 3.1 3.3 -4
v 3.1 3.3 -4.1
v 3.1 3.4 -4
v 3.1 3.4 -4.1
v 3.1 3.5 -3.8
v 3.1 3.5 -3.9
v 3.1 3.5 -4
v 3.1 3.5 -4.1
v 3.1 3.6 -3.8
v 3.1 3.6 -3.9
v 3.1 3.7 -3.8
v 3.1 3.7 -3.9
v 3.1 3.7 -4
v 3.1 3.7 -4.1
v 3.1 3.8 -3.9
v 3.1 3.8 -4
v 3.2 3.3 -3.9
v 3.2 3.3 -4
v 3.2 3.7 -3.9
v 3.2 3.7 -4
v 2.8 3.3 -3.6
v 2.8 3.7 -3.6
v 2.9 3.3 -3.6
v 2.9 3.7 -3.6
v 2.7 3.3 -3.7
v 2.7 3.6 -3.7
v 2.7 3.7 -3.7
v 2.8 2 -3.7
v 2.8 2.1 -3.7
v 2.8 3.1 -3.7
v 2.8 3.3 -3.7
v 2.8 3.6 -3.7
v 2.8 3.7 -3.7
v 2.8 3.8 -3.7
v 2.9 2 -3.7
v 2.9 2.1 -3.7
v 2.9 3.1 -3.7
v 2.9 3.3 -3.7
v 2.9 3.4 -3.7
v 2.9 3.5 -3.7
v 2.9 3.7 -3.7
v 2.9 3.8 -3.7
v 3 3.3 -3.7
v 3 3.4 -3.7
v 3 3.5 -3.7
v 3 3.7 -3.7
v 2.6 3.3 -3.8
v 2.6 3.7 -3.8
v 2.7 2 -3.8
v 2.7 2.1 -3.8
v 2.7 3.1 -3.8
v 2.7 3.3 -3.8
v 2.7 3.6 -3.8
v 2.7 3.7 -3.8
v 2.7 3.8 -3.8
v 2.8 2 -3.8
v 2.8 2.1 -3.8
v 2.8 2.2 -3.8
v 2.8 2.8 -3.8
v 2.8 2.9 -3.8
v 2.8 3 -3.8
v 2.8 3.1 -3.8
v 2.8 3.3 -3.8
v 2.8 3.7 -3.8
v 2.8 3.8 -3.8
v 2.8 3.9 -3.8
v 2.9 2 -3.8
v 2.9 2.1 -3.8
v 2.9 2.2 -3.8
v 2.9 2.8 -3.8
v 2.9 2.9 -3.8
v 2.9 3 -3.8
v 2.9 3.1 -3.8
v 2.9 3.3 -3.8
v 2.9 3.7 -3.8
v 2.9 3.8 -3.8
v 2.9 3.9 -3.8
v 3 2 -3.8
v 3 2.1 -3.8
v 3 3.1 -3.8
v 3 3.3 -3.8
v 3 3.4 -3.8
v 3 3.5 -3.8
v 3 3.6 -3.8
v 3 3.7 -3.8
v 3 3.8 -3.8
v 3.1 3.3 -3.8
v 3.1 3.5 -3.8
v 3.1 3.6 -3.8
v 3.1 3.7 -3.8
v 2.5 3.3 -3.9
v 2.5 3.5 -3.9
v 2.5 3.6 -3.9
v 2.5 3.7 -3.9
v 2.6 2 -3.9
v 2.6 2.1 -3.9
v 2.6 3.1 -3.9
v 2.6 3.3 -3.9
v 2.6 3.5 -3.9
v 2.6 3.6 -3.9
v 2.6 3.7 -3.9
v 2.6 3.8 -3.9
v 2.7 2 -3.9
v 2.7 2.1 -3.9
v 2.7 2.2 -3.9
v 2.7 2.8 -3.9
v 2.7 3.1 -3.9
v 2.7 3.3 -3.9
v 2.7 3.7 -3.9
v 2.7 3.8 -3.9
v 2.7 3.9 -3.9
v 2.8 2.1 -3.9
v 2.8 2.2 -3.9
v 2.8 2.8 -3.9
v 2.8 2.9 -3.9
v 2.8 3 -3.9
v 2.8 3.1 -3.9
v 2.8 3.8 -3.9
v 2.8 3.9 -3.9
v 2.8 4 -3.9
v 2.9 2.1 -3.9
v 2.9 2.2 -3.9
v 2.9 2.8 -3.9
v 2.9 2.9 -3.9
v 2.9 3 -3.9
v 2.9 3.1 -3.9
v 2.9 3.8 -3.9
v 2.9 3.9 -3.9
v 2.9 4 -3.9
v 3 2 -3.9
v 3 2.1 -3.9
v 3 2.2 -3.9
v 3 2.8 -3.9
v 3 3.1 -3.9
v 3 3.3 -3.9
v 3 3.7 -3.9
v 3 3.8 -3.9
v 3 3.9 -3.9
v 3.1 2 -3.9
v 3.1 2.1 -3.9
v 3.1 3.1 -3.9
v 3.1 3.3 -3.9
v 3.1 3.5 -3.9
v 3.1 3.6 -3.9
v 3.1 3.7 -3.9
v 3.1 3.8 -3.9
v 3.2 3.3 -3.9
v 3.2 3.7 -3.9
v 2.5 3.3 -4
v 2.5 3.5 -4
v 2.5 3.6 -4
v 2.5 3.7 -4
v 2.6 2 -4
v 2.6 2.1 -4
v 2.6 3.1 -4
v 2.6 3.3 -4
v 2.6 3.5 -4
v 2.6 3.6 -4
v 2.6 3.7 -4
v 2.6 3.8 -4
v 2.7 2 -4
v 2.7 2.1 -4
v 2.7 2.2 -4
v 2.7 2.8 -4
v 2.7 3.1 -4
v 2.7 3.2 -4
v 2.7 3.3 -4
v 2.7 3.7 -4
v 2.7 3.8 -4
v 2.7 3.9 -4
v 2.8 2.1 -4
v 2.8 2.2 -4
v 2.8 2.8 -4
v 2.8 3.1 -4
v 2.8 3.8 -4
v 2.8 3.9 -4
v 2.8 4 -4
v 2.9 2.1 -4
v 2.9 2.2 -4
v 2.9 2.8 -4
v 2.9 3.1 -4
v 2.9 3.8 -4
v 2.9 3.9 -4
v 2.9 4 -4
v 3 2 -4
v 3 2.1 -4
v 3 2.2 -4
v 3 2.8 -4
v 3 3.1 -4
v 3 3.3 -4
v 3 3.7 -4
v 3 3.8 -4
v 3 3.9 -4
v 3.1 2 -4
v 3.1 2.1 -4
v 3.1 3.1 -4
v 3.1 3.3 -4
v 3.1 3.4 -4
v 3.1 3.5 -4
v 3.1 3.7 -4
v 3.1 3.8 -4
v 3.2 3.3 -4
v 3.2 3.7 -4
v 2.6 3.3 -4.1
v 2.6 3.7 -4.1
v 2.7 2 -4.1
v 2.7 2.1 -4.1
v 2.7 3.1 -4.1
v 2.7 3.2 -4.1
v 2.7 3.3 -4.1
v 2.7 3.4 -4.1
v 2.7 3.5 -4.1
v 2.7 3.7 -4.1
v 2.7 3.8 -4.1
v 2.8 2 -4.1
v 2.8 2.1 -4.1
v 2.8 2.2 -4.1
v 2.8 2.8 -4.1
v 2.8 3.1 -4.1
v 2.8 3.2 -4.1
v 2.8 3.3 -4.1
v 2.8 3.7 -4.1
v 2.8 3.8 -4.1
v 2.8 3.9 -4.1
v 2.9 2 -4.1
v 2.9 2.1 -4.1
v 2.9 2.2 -4.1
v 2.9 2.8 -4.1
v 2.9 3.1 -4.1
v 2.9 3.2 -4.1
v 2.9 3.3 -4.1
v 2.9 3.7 -4.1
v 2.9 3.8 -4.1
v 2.9 3.9 -4.1
v 3 2 -4.1
v 3 2.1 -4.1
v 3 3.1 -4.1
v 3 3.3 -4.1
v 3 3.4 -4.1
v 3 3.5 -4.1
v 3 3.6 -4.1
v 3 3.7 -4.1
v 3 3.8 -4.1
v 3.1 3.3 -4.1
v 3.1 3.4 -4.1
v 3.1 3.5 -4.1
v 3.1 3.7 -4.1
v 2.7 3.3 -4.2
v 2.7 3.4 -4.2
v 2.7 3.5 -4.2
v 2.7 3.7 -4.2
v 2.8 2 -4.2
v 2.8 2.1 -4.2
v 2.8 3.1 -4.2
v 2.8 3.2 -4.2
v 2.8 3.3 -4.2
v 2.8 3.4 -4.2
v 2.8 3.5 -4.2
v 2.8 3.7 -4.2
v 2.8 3.8 -4.2
v 2.9 2 -4.2
v 2.9 2.1 -4.2
v 2.9 3.1 -4.2
v 2.9 3.2 -4.2
v 2.9 3.3 -4.2
v 2.9 3.5 -4.2
v 2.9 3.6 -4.2
v 2.9 3.7 -4.2
v 2.9 3.8 -4.2
v 3 3.3 -4.2
v 3 3.5 -4.2
v 3 3.6 -4.2
v 3 3.7 -4.2
v 2.8 3.3 -4.3
v 2.8 3.7 -4.3
v 2.9 3.3 -4.3
v 2.9 3.7 -4.3
v 2.8 2 -3.7
v 2.9 2 -3.7
v 2.7 2 -3.8
v 2.8 2 -3.8
v 2.9 2 -3.8
v 3 2 -3.8
v 2.6 2 -3.9
v 2.7 2 -3.9
v 3 2 -3.9
v 3.1 2 -3.9
v 2.6 2 -4
v 2.7 2 -4
v 3 2 -4
v 3.1 2 -4
v 2.7 2 -4.1
v 2.8 2 -4.1
v 2.9 2 -4.1
v 3 2 -4.1
v 2.8 2 -4.2
v 2.9 2 -4.2
v 2.8 2.8 -3.8
v 2.9 2.8 -3.8
v 2.7 2.8 -3.9
v 2.8 2.8 -3.9
v 2.9 2.8 -3.9
v 3 2.8 -3.9
v 2.7 2.8 -4
v 2.8 2.8 -4
v 2.9 2.8 -4
v 3 2.8 -4
v 2.8 2.8 -4.1
v 2.9 2.8 -4.1
v 2.8 3.1 -3.7
v 2.9 3.1 -3.7
v 2.7 3.1 -3.8
v 2.8 3.1 -3.8
v 2.9 3.1 -3.8
v 3 3.1 -3.8
v 2.6 3.1 -3.9
v 2.7 3.1 -3.9
v 2.8 3.1 -3.9
v 2.9 3.1 -3.9
v 3 3.1 -3.9
v 3.1 3.1 -3.9
v 2.6 3.1 -4
v 2.7 3.1 -4
v 2.8 3.1 -4
v 2.9 3.1 -4
v 3 3.1 -4
v 3.1 3.1 -4
v 2.7 3.1 -4.1
v 2.8 3.1 -4.1
v 2.9 3.1 -4.1
v 3 3.1 -4.1
v 2.8 3.1 -4.2
v 2.9 3.1 -4.2
v 2.8 3.3 -3.6
v 2.9 3.3 -3.6
v 2.7 3.3 -3.7
v 2.8 3.3 -3.7
v 2.9 3.3 -3.7
v 3 3.3 -3.7
v 2.6 3.3 -3.8
v 2.7 3.3 -3.8
v 2.8 3.3 -3.8
v 2.9 3.3 -3.8
v 3 3.3 -3.8
v 3.1 3.3 -3.8
v 2.5 3.3 -3.9
v 2.6 3.3 -3.9
v 2.7 3.3 -3.9
v 3 3.3 -3.9
v 3.1 3.3 -3.9
v 3.2 3.3 -3.9
v 2.5 3.3 -4
v 2.6 3.3 -4
v 2.7 3.3 -4
v 3 3.3 -4
v 3.1 3.3 -4
v 3.2 3.3 -4
v 2.6 3.3 -4.1
v 2.7 3.3 -4.1
v 2.8 3.3 -4.1
v 2.9 3.3 -4.1
v 3 3.3 -4.1
v 3.1 3.3 -4.1
v 2.7 3.3 -4.2
v 2.8 3.3 -4.2
v 2.9 3.3 -4.2
v 3 3.3 -4.2
v 2.8 3.3 -4.3
v 2.9 3.3 -4.3
v 2.8 2.1 -3.7
v 2.9 2.1 -3.7
v 2.7 2.1 -3.8
v 2.8 2.1 -3.8
v 2.9 2.1 -3.8
v 3 2.1 -3.8
v 2.6 2.1 -3.9
v 2.7 2.1 -3.9
v 2.8 2.1 -3.9
v 2.9 2.1 -3.9
v 3 2.1 -3.9
v 3.1 2.1 -3.9
v 2.6 2.1 -4
v 2.7 2.1 -4
v 2.8 2.1 -4
v 2.9 2.1 -4
v 3 2.1 -4
v 3.1 2.1 -4
v 2.7 2.1 -4.1
v 2.8 2.1 -4.1
v 2.9 2.1 -4.1
v 3 2.1 -4.1
v 2.8 2.1 -4.2
v 2.9 2.1 -4.2
v 2.8 2.2 -3.8
v 2.9 2.2 -3.8
v 2.7 2.2 -3.9
v 2.8 2.2 -3.9
v 2.9 2.2 -3.9
v 3 2.2 -3.9
v 2.7 2.2 -4
v 2.8 2.2 -4
v 2.9 2.2 -4
v 3 2.2 -4
v 2.8 2.2 -4.1
v 2.9 2.2 -4.1
v 2.8 3.7 -3.6
v 2.9 3.7 -3.6
v 2.7 3.7 -3.7
v 2.8 3.7 -3.7
v 2.9 3.7 -3.7
v 3 3.7 -3.7
v 2.6 3.7 -3.8
v 2.7 3.7 -3.8
v 2.8 3.7 -3.8
v 2.9 3.7 -3.8
v 3 3.7 -3.8
v 3.1 3.7 -3.8
v 2.5 3.7 -3.9
v 2.6 3.7 -3.9
v 2.7 3.7 -3.9
v 3 3.7 -3.9
v 3.1 3.7 -3.9
v 3.2 3.7 -3.9
v 2.5 3.7 -4
v 2.6 3.7 -4
v 2.7 3.7 -4
v 3 3.7 -4
v 3.1 3.7 -4
v 3.2 3.7 -4
v 2.6 3.7 -4.1
v 2.7 3.7 -4.1
v 2.8 3.7 -4.1
v 2.9 3.7 -4.1
v 3 3.7 -4.1
v 3.1 3.7 -4.1
v 2.7 3.7 -4.2
v 2.8 3.7 -4.2
v 2.9 3.7 -4.2
v 3 3.7 -4.2
v 2.8 3.7 -4.3
v 2.9 3.7 -4.3
v 2.8 3.8 -3.7
v 2.9 3.8 -3.7
v 2.7 3.8 -3.8
v 2.8 3.8 -3.8
v 2.9 3.8 -3.8
v 3 3.8 -3.8
v 2.6 3.8 -3.9
v 2.7 3.8 -3.9
v 2.8 3.8 -3.9
v 2.9 3.8 -3.9
v 3 3.8 -3.9
v 3.1 3.8 -3.9
v 2.6 3.8 -4
v 2.7 3.8 -4
v 2.8 3.8 -4
v 2.9 3.8 -4
v 3 3.8 -4
v 3.1 3.8 -4
v 2.7 3.8 -4.1
v 2.8 3.8 -4.1
v 2.9 3.8 -4.1
v 3 3.8 -4.1
v 2.8 3.8 -4.2
v 2.9 3.8 -4.2
v 2.8 3.9 -3.8
v 2.9 3.9 -3.8
v 2.7 3.9 -3.9
v 2.8 3.9 -3.9
v 2.9 3.9 -3.9
v 3 3.9 -3.9
v 2.7 3.9 -4
v 2.8 3.9 -4
v 2.9 3.9 -4
v 3 3.9 -4
v 2.8 3.9 -4.1
v 2.9 3.9 -4.1
v 2.8 4 -3.9
v 2.9 4 -3.9
v 2.8 4 -4
v 2.9 4 -4

# faces
f 3/2/1 2/2/1 1/2/1
f 4/2/1 2/2/1 3/2/1
f 5/1/1 4/1/1 3/1/1
f 6/1/1 4/1/1 5/1/1
f 7/2/1 6/2/1 5/2/1
f 8/2/1 6/2/1 7/2/1
f 11/3/1 10/3/1 9/3/1
f 12/3/1 10/3/1 11/3/1
f 16/2/1 14/2/1 13/2/1
f 17/2/1 14/2/1 16/2/1
f 19/2/1 16/2/1 15/2/1
f 20/2/1 18/2/1 17/2/1
f 21/2/1 19/2/1 15/2/1
f 22/2/1 18/2/1 20/2/1
f 23/2/1 21/2/1 15/2/1
f 24/2/1 21/2/1 23/2/1
f 25/2/1 18/2/1 22/2/1
f 26/2/1 18/2/1 25/2/1
f 27/2/1 25/2/1 24/2/1
f 28/2/1 25/2/1 27/2/1
f 33/3/1 30/3/1 29/3/1
f 34/3/1 30/3/1 33/3/1
f 35/3/1 32/3/1 31/3/1
f 36/3/1 32/3/1 35/3/1
f 37/3/1 35/3/1 34/3/1
f 38/3/1 35/3/1 37/3/1
f 42/2/1 40/2/1 39/2/1
f 43/2/1 40/2/1 42/2/1
f 45/2/1 44/2/1 43/2/1
f 46/2/1 44/2/1 45/2/1
f 48/2/1 42/2/1 41/2/1
f 49/2/1 42/2/1 48/2/1
f 50/1/1 46/1/1 45/1/1
f 51/1/1 46/1/1 50/1/1
f 53/2/1 52/2/1 51/2/1
f 54/2/1 52/2/1 53/2/1
f 55/1/1 54/1/1 53/1/1
f 56/1/1 54/1/1 55/1/1
f 57/2/1 48/2/1 47/2/1
f 58/2/1 48/2/1 57/2/1
f 59/1/1 58/1/1 57/1/1
f 60/1/1 58/1/1 59/1/1
f 63/2/1 56/2/1 55/2/1
f 64/2/1 56/2/1 63/2/1
f 65/2/1 61/2/1 60/2/1
f 66/2/1 61/2/1 65/2/1
f 67/2/1 63/2/1 62/2/1
f 68/2/1 63/2/1 67/2/1
f 69/2/1 67/2/1 66/2/1
f 70/2/1 67/2/1 69/2/1
f 75/3/1 72/3/1 71/3/1
f 76/3/1 72/3/1 75/3/1
f 79/3/1 74/3/1 73/3/1
f 80/3/1 74/3/1 79/3/1
f 81/3/1 77/3/1 76/3/1
f 82/3/1 77/3/1 81/3/1
f 83/3/1 79/3/1 78/3/1
f 84/3/1 79/3/1 83/3/1
f 86/3/1 83/3/1 82/3/1
f 87/3/1 83/3/1 86/3/1
f 89/2/1 86/2/1 85/2/1
f 90/2/1 86/2/1 89/2/1
f 91/1/1 90/1/1 89/1/1
f 92/1/1 90/1/1 91/1/1
f 94/2/1 92/2/1 91/2/1
f 95/2/1 92/2/1 94/2/1
f 96/2/1 88/2/1 87/2/1
f 97/2/1 88/2/1 96/2/1
f 99/1/1 98/1/1 97/1/1
f 100/1/1 98/1/1 99/1/1
f 102/2/1 94/2/1 93/2/1
f 103/2/1 94/2/1 102/2/1
f 104/2/1 100/2/1 99/2/1
f 105/2/1 100/2/1 104/2/1
f 107/2/1 106/2/1 105/2/1
f 108/2/1 106/2/1 107/2/1
f 109/2/1 102/2/1 101/2/1
f 110/2/1 109/2/1 101/2/1
f 111/2/1 109/2/1 110/2/1
f 114/2/1 106/2/1 108/2/1
f 115/2/1 106/2/1 114/2/1
f 116/2/1 112/2/1 111/2/1
f 117/2/1 112/2/1 116/2/1
f 120/2/1 114/2/1 113/2/1
f 121/2/1 114/2/1 120/2/1
f 122/2/1 118/2/1 117/2/1
f 123/2/1 118/2/1 122/2/1
f 124/1/1 120/1/1 119/1/1
f 125/1/1 120/1/1 124/1/1
f 126/2/1 124/2/1 123/2/1
f 127/2/1 124/2/1 126/2/1
f 128/3/2 129/3/2 132/3/2
f 132/3/2 129/3/2 133/3/2
f 130/3/2 131/3/2 136/3/2
f 136/3/2 131/3/2 137/3/2
f 133/3/2 134/3/2 138/3/2
f 138/3/2 134/3/2 139/3/2
f 135/3/2 136/3/2 140/3/2
f 140/3/2 136/3/2 141/3/2
f 139/3/2 140/3/2 143/3/2
f 143/3/2 140/3/2 144/3/2
f 142/2/2 143/2/2 146/2/2
f 146/2/2 143/2/2 147/2/2
f 146/1/2 147/1/2 148/1/2
f 148/1/2 147/1/2 149/1/2
f 148/2/2 149/2/2 151/2/2
f 151/2/2 149/2/2 152/2/2
f 144/2/2 145/2/2 153/2/2
f 153/2/2 145/2/2 154/2/2
f 154/1/2 155/1/2 156/1/2
f 156/1/2 155/1/2 157/1/2
f 150/2/2 151/2/2 159/2/2
f 159/2/2 151/2/2 160/2/2
f 156/2/2 157/2/2 161/2/2
f 161/2/2 157/2/2 162/2/2
f 158/2/2 159/2/2 164/2/2
f 158/2/2 164/2/2 165/2/2
f 162/2/2 163/2/2 166/2/2
f 166/2/2 163/2/2 167/2/2
f 158/2/2 165/2/2 168/2/2
f 168/2/2 165/2/2 169/2/2
f 167/2/2 163/2/2 172/2/2
f 172/2/2 163/2/2 173/2/2
f 169/2/2 170/2/2 174/2/2
f 174/2/2 170/2/2 175/2/2
f 171/2/2 172/2/2 178/2/2
f 178/2/2 172/2/2 179/2/2
f 175/2/2 176/2/2 180/2/2
f 180/2/2 176/2/2 181/2/2
f 177/1/2 178/1/2 182/1/2
f 182/1/2 178/1/2 183/1/2
f 181/2/2 182/2/2 184/2/2
f 184/2/2 182/2/2 185/2/2
f 186/3/2 187/3/2 190/3/2
f 190/3/2 187/3/2 191/3/2
f 188/3/2 189/3/2 192/3/2
f 192/3/2 189/3/2 193/3/2
f 191/3/2 192/3/2 194/3/2
f 194/3/2 192/3/2 195/3/2
f 196/2/2 197/2/2 199/2/2
f 199/2/2 197/2/2 200/2/2
f 198/2/2 199/2/2 203/2/2
f 203/2/2 199/2/2 204/2/2
f 200/2/2 201/2/2 205/2/2
f 205/2/2 201/2/2 206/2/2
f 202/2/2 203/2/2 208/2/2
f 208/2/2 203/2/2 209/2/2
f 206/2/2 207/2/2 210/2/2
f 208/1/2 209/1/2 211/1/2
f 211/1/2 209/1/2 212/1/2
f 210/2/2 207/2/2 213/2/2
f 213/2/2 207/2/2 214/2/2
f 211/2/2 212/2/2 215/2/2
f 213/1/2 214/1/2 216/1/2
f 216/1/2 214/1/2 217/1/2
f 211/2/2 215/2/2 218/2/2
f 218/2/2 215/2/2 219/2/2
f 216/2/2 217/2/2 222/2/2
f 222/2/2 217/2/2 223/2/2
f 219/2/2 220/2/2 224/2/2
f 224/2/2 220/2/2 225/2/2
f 221/2/2 222/2/2 226/2/2
f 226/2/2 222/2/2 227/2/2
f 225/2/2 226/2/2 228/2/2
f 228/2/2 226/2/2 229/2/2
f 230/3/2 231/3/2 232/3/2
f 232/3/2 231/3/2 233/3/2
f 234/2/2 235/2/2 237/2/2
f 237/2/2 235/2/2 238/2/2
f 238/2/2 239/2/2 240/2/2
f 240/2/2 239/2/2 241/2/2
f 236/2/2 237/2/2 242/2/2
f 242/2/2 237/2/2 243/2/2
f 240/1/2 241/1/2 244/1/2
f 244/1/2 241/1/2 245/1/2
f 242/1/2 243/1/2 246/1/2
f 246/1/2 243/1/2 247/1/2
f 246/2/2 247/2/2 248/2/2
f 248/2/2 247/2/2 249/2/2
f 244/2/2 245/2/2 250/2/2
f 250/2/2 245/2/2 251/2/2
f 249/2/2 250/2/2 252/2/2
f 252/2/2 250/2/2 253/2/2
f 254/2/2 255/2/2 256/2/2
f 256/2/2 255/2/2 257/2/2
f 260/2/3 259/2/3 258/2/3
f 261/2/3 259/2/3 260/2/3
f 268/2/3 263/2/3 262/2/3
f 269/1/3 264/1/3 263/1/3
f 269/2/3 263/2/3 268/2/3
f 270/1/3 264/1/3 269/1/3
f 272/3/3 266/3/3 265/3/3
f 273/3/3 266/3/3 272/3/3
f 274/2/3 268/2/3 267/2/3
f 275/2/3 268/2/3 274/2/3
f 278/2/3 271/2/3 270/2/3
f 279/2/3 271/2/3 278/2/3
f 280/2/3 276/2/3 275/2/3
f 281/1/3 277/1/3 276/1/3
f 281/2/3 276/2/3 280/2/3
f 282/2/3 278/2/3 277/2/3
f 282/1/3 277/1/3 281/1/3
f 283/2/3 278/2/3 282/2/3
f 289/2/3 285/2/3 284/2/3
f 290/2/3 285/2/3 289/2/3
f 291/2/3 285/2/3 290/2/3
f 293/3/3 287/3/3 286/3/3
f 294/3/3 287/3/3 293/3/3
f 299/2/3 289/2/3 288/2/3
f 300/2/3 289/2/3 299/2/3
f 301/2/3 292/2/3 291/2/3
f 302/2/3 292/2/3 301/2/3
f 305/3/3 295/3/3 294/3/3
f 306/3/3 295/3/3 305/3/3
f 307/2/3 297/2/3 296/2/3
f 308/1/3 298/1/3 297/1/3
f 308/2/3 297/2/3 307/2/3
f 309/2/3 299/2/3 298/2/3
f 309/1/3 298/1/3 308/1/3
f 310/2/3 299/2/3 309/2/3
f 313/2/3 303/2/3 302/2/3
f 314/2/3 303/2/3 313/2/3
f 315/3/3 305/3/3 304/3/3
f 316/3/3 305/3/3 315/3/3
f 317/2/3 311/2/3 310/2/3
f 318/2/3 311/2/3 317/2/3
f 322/2/3 313/2/3 312/2/3
f 323/2/3 313/2/3 322/2/3
f 324/2/3 319/2/3 318/2/3
f 324/2/3 320/2/3 319/2/3
f 325/1/3 321/1/3 320/1/3
f 325/2/3 320/2/3 324/2/3
f 326/2/3 322/2/3 321/2/3
f 326/1/3 321/1/3 325/1/3
f 327/2/3 322/2/3 326/2/3
f 335/2/3 329/2/3 328/2/3
f 336/1/3 330/1/3 329/1/3
f 336/2/3 329/2/3 335/2/3
f 337/2/3 331/2/3 330/2/3
f 337/1/3 330/1/3 336/1/3
f 338/2/3 331/2/3 337/2/3
f 340/3/3 333/3/3 332/3/3
f 341/3/3 333/3/3 340/3/3
f 344/2/3 335/2/3 334/2/3
f 345/2/3 335/2/3 344/2/3
f 346/2/3 339/2/3 338/2/3
f 347/2/3 339/2/3 346/2/3
f 349/3/3 342/3/3 341/3/3
f 350/3/3 342/3/3 349/3/3
f 351/2/3 344/2/3 343/2/3
f 352/2/3 344/2/3 351/2/3
f 353/2/3 344/2/3 352/2/3
f 354/2/3 344/2/3 353/2/3
f 355/2/3 348/2/3 347/2/3
f 356/2/3 348/2/3 355/2/3
f 359/3/3 351/3/3 350/3/3
f 360/3/3 351/3/3 359/3/3
f 365/2/3 357/2/3 356/2/3
f 366/2/3 357/2/3 365/2/3
f 368/3/3 359/3/3 358/3/3
f 369/3/3 359/3/3 368/3/3
f 370/2/3 363/2/3 362/2/3
f 370/2/3 361/2/3 360/2/3
f 370/2/3 362/2/3 361/2/3
f 371/2/3 363/2/3 370/2/3
f 374/2/3 365/2/3 364/2/3
f 375/2/3 365/2/3 374/2/3
f 376/3/3 368/3/3 367/3/3
f 377/3/3 368/3/3 376/3/3
f 378/2/3 372/2/3 371/2/3
f 379/2/3 372/2/3 378/2/3
f 382/2/3 374/2/3 373/2/3
f 383/2/3 374/2/3 382/2/3
f 384/2/3 381/2/3 380/2/3
f 384/2/3 382/2/3 381/2/3
f 384/2/3 380/2/3 379/2/3
f 385/2/3 382/2/3 384/2/3
f 386/2/4 387/2/4 393/2/4
f 387/1/4 388/1/4 394/1/4
f 393/2/4 387/2/4 394/2/4
f 388/2/4 389/2/4 395/2/4
f 394/1/4 388/1/4 395/1/4
f 395/2/4 389/2/4 396/2/4
f 390/3/4 391/3/4 398/3/4
f 398/3/4 391/3/4 399/3/4
f 392/2/4 393/2/4 402/2/4
f 402/2/4 393/2/4 403/2/4
f 403/2/4 393/2/4 404/2/4
f 396/2/4 397/2/4 405/2/4
f 405/2/4 397/2/4 406/2/4
f 399/3/4 400/3/4 408/3/4
f 408/3/4 400/3/4 409/3/4
f 401/2/4 402/2/4 410/2/4
f 410/2/4 402/2/4 411/2/4
f 406/2/4 407/2/4 412/2/4
f 412/2/4 407/2/4 413/2/4
f 409/3/4 410/3/4 416/3/4
f 416/3/4 410/3/4 417/3/4
f 413/2/4 414/2/4 420/2/4
f 420/2/4 414/2/4 421/2/4
f 415/3/4 416/3/4 423/3/4
f 423/3/4 416/3/4 424/3/4
f 417/2/4 418/2/4 425/2/4
f 425/2/4 418/2/4 426/2/4
f 419/2/4 420/2/4 429/2/4
f 429/2/4 420/2/4 430/2/4
f 422/3/4 423/3/4 431/3/4
f 431/3/4 423/3/4 432/3/4
f 426/2/4 427/2/4 433/2/4
f 433/2/4 427/2/4 434/2/4
f 428/2/4 429/2/4 437/2/4
f 437/2/4 429/2/4 438/2/4
f 435/2/4 436/2/4 439/2/4
f 436/2/4 437/2/4 439/2/4
f 434/2/4 435/2/4 439/2/4
f 439/2/4 437/2/4 440/2/4
f 441/2/4 442/2/4 447/2/4
f 447/2/4 442/2/4 448/2/4
f 448/2/4 442/2/4 449/2/4
f 449/2/4 442/2/4 450/2/4
f 443/3/4 444/3/4 452/3/4
f 452/3/4 444/3/4 453/3/4
f 445/2/4 446/2/4 456/2/4
f 446/1/4 447/1/4 457/1/4
f 456/2/4 446/2/4 457/2/4
f 457/1/4 447/1/4 458/1/4
f 450/2/4 451/2/4 459/2/4
f 459/2/4 451/2/4 460/2/4
f 453/3/4 454/3/4 463/3/4
f 463/3/4 454/3/4 464/3/4
f 455/2/4 456/2/4 465/2/4
f 465/2/4 456/2/4 466/2/4
f 460/1/4 461/1/4 470/1/4
f 470/1/4 461/1/4 471/1/4
f 462/3/4 463/3/4 472/3/4
f 472/3/4 463/3/4 473/3/4
f 467/2/4 468/2/4 474/2/4
f 466/2/4 467/2/4 474/2/4
f 474/2/4 468/2/4 475/2/4
f 469/2/4 470/2/4 479/2/4
f 479/2/4 470/2/4 480/2/4
f 475/2/4 476/2/4 481/2/4
f 476/1/4 477/1/4 482/1/4
f 481/2/4 476/2/4 482/2/4
f 477/2/4 478/2/4 483/2/4
f 482/1/4 477/1/4 483/1/4
f 478/2/4 479/2/4 483/2/4
f 483/2/4 479/2/4 484/2/4
f 485/2/4 486/2/4 493/2/4
f 486/1/4 487/1/4 494/1/4
f 493/2/4 486/2/4 494/2/4
f 487/2/4 488/2/4 495/2/4
f 494/1/4 487/1/4 495/1/4
f 495/2/4 488/2/4 496/2/4
f 489/3/4 490/3/4 498/3/4
f 498/3/4 490/3/4 499/3/4
f 491/1/4 492/1/4 500/1/4
f 492/2/4 493/2/4 501/2/4
f 500/1/4 492/1/4 501/1/4
f 501/2/4 493/2/4 502/2/4
f 496/2/4 497/2/4 505/2/4
f 505/2/4 497/2/4 506/2/4
f 502/2/4 503/2/4 507/2/4
f 503/1/4 504/1/4 508/1/4
f 507/2/4 503/2/4 508/2/4
f 504/2/4 505/2/4 509/2/4
f 508/1/4 504/1/4 509/1/4
f 509/2/4 505/2/4 510/2/4
f 511/2/4 512/2/4 513/2/4
f 513/2/4 512/2/4 514/2/4
f 518/3/5 516/3/5 515/3/5
f 519/3/5 516/3/5 518/3/5
f 522/3/5 518/3/5 517/3/5
f 522/3/5 520/3/5 519/3/5
f 522/3/5 519/3/5 518/3/5
f 523/3/5 520/3/5 522/3/5
f 525/3/5 522/3/5 521/3/5
f 525/3/5 524/3/5 523/3/5
f 525/3/5 523/3/5 522/3/5
f 526/3/5 524/3/5 525/3/5
f 527/3/5 524/3/5 526/3/5
f 528/3/5 524/3/5 527/3/5
f 529/3/5 527/3/5 526/3/5
f 530/3/5 527/3/5 529/3/5
f 531/3/5 527/3/5 530/3/5
f 532/3/5 527/3/5 531/3/5
f 533/3/5 531/3/5 530/3/5
f 534/3/5 531/3/5 533/3/5
f 538/2/5 536/2/5 535/2/5
f 539/2/5 536/2/5 538/2/5
f 541/2/5 538/2/5 537/2/5
f 542/2/5 538/2/5 541/2/5
f 543/2/5 540/2/5 539/2/5
f 544/2/5 540/2/5 543/2/5
f 545/2/5 543/2/5 542/2/5
f 546/2/5 543/2/5 545/2/5
f 550/2/5 548/2/5 547/2/5
f 551/2/5 548/2/5 550/2/5
f 554/2/5 550/2/5 549/2/5
f 555/2/5 550/2/5 554/2/5
f 556/2/5 552/2/5 551/2/5
f 557/2/5 552/2/5 556/2/5
f 559/2/5 554/2/5 553/2/5
f 560/2/5 554/2/5 559/2/5
f 563/2/5 558/2/5 557/2/5
f 564/2/5 558/2/5 563/2/5
f 565/2/5 561/2/5 560/2/5
f 566/2/5 561/2/5 565/2/5
f 567/2/5 563/2/5 562/2/5
f 568/2/5 563/2/5 567/2/5
f 569/1/5 567/1/5 566/1/5
f 570/1/5 567/1/5 569/1/5
f 574/2/5 572/2/5 571/2/5
f 575/2/5 572/2/5 574/2/5
f 578/2/5 574/2/5 573/2/5
f 579/2/5 574/2/5 578/2/5
f 580/2/5 576/2/5 575/2/5
f 581/2/5 576/2/5 580/2/5
f 584/2/5 578/2/5 577/2/5
f 585/2/5 578/2/5 584/2/5
f 586/2/5 582/2/5 581/2/5
f 587/2/5 582/2/5 586/2/5
f 589/2/5 584/2/5 583/2/5
f 590/2/5 584/2/5 589/2/5
f 593/2/5 588/2/5 587/2/5
f 594/2/5 588/2/5 593/2/5
f 595/2/5 591/2/5 590/2/5
f 596/2/5 591/2/5 595/2/5
f 599/2/5 593/2/5 592/2/5
f 600/2/5 593/2/5 599/2/5
f 601/2/5 597/2/5 596/2/5
f 602/2/5 597/2/5 601/2/5
f 603/2/5 599/2/5 598/2/5
f 604/2/5 599/2/5 603/2/5
f 605/2/5 603/2/5 602/2/5
f 606/2/5 603/2/5 605/2/5
f 607/3/6 608/3/6 610/3/6
f 610/3/6 608/3/6 611/3/6
f 609/3/6 610/3/6 614/3/6
f 614/3/6 610/3/6 615/3/6
f 611/3/6 612/3/6 616/3/6
f 616/3/6 612/3/6 617/3/6
f 613/3/6 614/3/6 619/3/6
f 619/3/6 614/3/6 620/3/6
f 617/3/6 618/3/6 623/3/6
f 623/3/6 618/3/6 624/3/6
f 620/3/6 621/3/6 625/3/6
f 625/3/6 621/3/6 626/3/6
f 622/3/6 623/3/6 627/3/6
f 627/3/6 623/3/6 628/3/6
f 626/3/6 627/3/6 629/3/6
f 629/3/6 627/3/6 630/3/6
f 631/3/6 632/3/6 634/3/6
f 634/3/6 632/3/6 635/3/6
f 633/3/6 634/3/6 637/3/6
f 637/3/6 634/3/6 638/3/6
f 635/3/6 636/3/6 639/3/6
f 639/3/6 636/3/6 640/3/6
f 638/3/6 639/3/6 641/3/6
f 641/3/6 639/3/6 642/3/6
f 643/2/6 644/2/6 646/2/6
f 646/2/6 644/2/6 647/2/6
f 645/1/6 646/1/6 650/1/6
f 650/1/6 646/1/6 651/1/6
f 647/2/6 648/2/6 652/2/6
f 652/2/6 648/2/6 653/2/6
f 649/2/6 650/2/6 656/2/6
f 656/2/6 650/2/6 657/2/6
f 653/2/6 654/2/6 658/2/6
f 658/2/6 654/2/6 659/2/6
f 655/2/6 656/2/6 661/2/6
f 661/2/6 656/2/6 662/2/6
f 659/2/6 660/2/6 665/2/6
f 665/2/6 660/2/6 666/2/6
f 662/2/6 663/2/6 667/2/6
f 667/2/6 663/2/6 668/2/6
f 664/2/6 665/2/6 671/2/6
f 671/2/6 665/2/6 672/2/6
f 668/2/6 669/2/6 673/2/6
f 673/2/6 669/2/6 674/2/6
f 670/2/6 671/2/6 675/2/6
f 675/2/6 671/2/6 676/2/6
f 674/2/6 675/2/6 677/2/6
f 677/2/6 675/2/6 678/2/6
f 679/2/6 680/2/6 682/2/6
f 682/2/6 680/2/6 683/2/6
f 681/2/6 682/2/6 686/2/6
f 686/2/6 682/2/6 687/2/6
f 683/2/6 684/2/6 688/2/6
f 688/2/6 684/2/6 689/2/6
f 685/2/6 686/2/6 691/2/6
f 691/2/6 686/2/6 692/2/6
f 689/2/6 690/2/6 695/2/6
f 695/2/6 690/2/6 696/2/6
f 692/2/6 693/2/6 697/2/6
f 697/2/6 693/2/6 698/2/6
f 694/2/6 695/2/6 699/2/6
f 699/2/6 695/2/6 700/2/6
f 698/2/6 699/2/6 701/2/6
f 701/2/6 699/2/6 702/2/6
f 703/2/6 704/2/6 706/2/6
f 706/2/6 704/2/6 707/2/6
f 705/2/6 706/2/6 709/2/6
f 709/2/6 706/2/6 710/2/6
f 707/2/6 708/2/6 711/2/6
f 711/2/6 708/2/6 712/2/6
f 710/1/6 711/1/6 713/1/6
f 713/1/6 711/1/6 714/1/6
f 715/2/6 716/2/6 717/2/6
f 717/2/6 716/2/6 718/2/6
